<?xml version="1.0" encoding="UTF-8"?>
<svg width="337px" height="105px" viewBox="0 0 337 105" version="1.1" xmlns="http://www.w3.org/2000/svg" xmlns:xlink="http://www.w3.org/1999/xlink">
    <title>BT_LOGO_2016</title>
    <g id="BT_LOGO_2016" stroke="none" stroke-width="1" fill="none" fill-rule="evenodd">
        <path d="M78.089,98.382 C79.554,98.382 80.781,97.762 80.781,96.144 C80.781,94.305 79.366,94.079 77.846,94.079 L77.846,98.382 L78.089,98.382 Z M77.846,101.535 C77.846,102.745 77.779,104.04 79.386,104.04 C80.664,104.04 81.543,103.175 81.543,101.897 C81.543,100.005 79.782,98.867 77.846,99.018 L77.846,101.535 Z M73.471,104.682 L73.471,104.219 C75.44,103.89 75.658,104.007 75.658,101.002 L75.658,96.593 C75.588,94.358 75.622,94.079 73.471,93.872 L73.471,93.412 L78.476,93.412 C80.365,93.412 83.265,93.412 83.265,95.918 C83.265,97.405 81.761,98.069 80.536,98.365 L80.536,98.401 C82.201,98.753 84.032,99.71 84.032,101.683 C84.032,104.436 81.027,104.682 78.956,104.682 L73.471,104.682 L73.471,104.682 Z" id="Fill-1" fill="#1A1919"></path>
        <path d="M102.002,101.002 C102.002,103.265 101.904,104.024 104.404,104.219 L104.404,104.682 L97.406,104.682 L97.406,104.219 C99.599,103.89 99.82,104.007 99.82,101.002 L99.82,100.237 L97.953,96.479 C97.208,94.966 96.996,94.26 95.163,93.872 L95.163,93.412 L100.908,93.412 L100.908,93.872 C99.75,94.173 99.203,94.045 100.163,96.065 L101.605,99.101 L102.498,97.271 C103.91,94.402 103.612,94.26 102.133,93.872 L102.133,93.412 L106.955,93.412 L106.955,93.872 C105.554,94.173 104.873,94.525 104.192,95.764 L102.303,99.266 L102.002,99.894 L102.002,101.002" id="Fill-2" fill="#1A1919"></path>
        <path d="M137.944,105 L137.263,104.869 L134.526,96.127 C134.161,94.988 134.01,94.173 132.654,93.872 L132.654,93.412 L137.844,93.412 L137.844,93.872 C136.1,94.288 136.351,94.704 136.951,96.629 L138.391,101.35 L138.421,101.35 L140.514,95.429 C140.193,94.458 139.713,94.107 138.723,93.872 L138.723,93.412 L144.044,93.412 L144.044,93.872 C142.649,94.26 142.35,94.274 143.031,96.442 L144.588,101.518 L144.621,101.518 L145.182,99.71 C145.498,98.753 146.477,95.831 146.477,95.002 C146.477,94.107 145.699,94.107 145.021,93.872 L145.021,93.412 L149.513,93.412 L149.513,93.872 C148.037,94.319 147.856,94.654 147.124,96.696 L144.155,105 L143.477,104.869 L140.927,96.607 L140.896,96.607 L137.944,105" id="Fill-3" fill="#1A1919"></path>
        <path d="M164.918,99.246 L163.415,95.398 L161.983,99.246 L164.918,99.246 Z M161.668,100.237 L161.372,101.088 C160.376,103.954 161.06,104.007 162.865,104.219 L162.865,104.682 L157.705,104.682 L157.705,104.219 C158.598,103.937 158.986,103.906 159.363,103.03 L163.027,94.469 L162.865,93.975 C163.507,93.75 164.039,93.258 164.439,92.698 L164.757,92.698 L167.854,100.77 C168.928,103.488 168.814,103.692 170.524,104.219 L170.524,104.682 L164.885,104.682 L164.885,104.219 C166.495,103.937 166.596,103.622 165.686,101.289 L165.284,100.237 L161.668,100.237 L161.668,100.237 Z" id="Fill-4" fill="#1A1919"></path>
        <path d="M192.51,97.176 L192.01,97.176 C191.611,95.301 190.489,93.895 188.396,93.895 C185.629,93.895 184.253,96.361 184.253,98.914 C184.253,101.339 185.838,104.202 188.55,104.202 C190.821,104.202 191.932,102.427 192.685,100.577 L193.185,100.742 L192.144,104.219 C190.95,104.738 189.705,104.967 188.413,104.967 C184.85,104.967 181.566,103.03 181.566,99.207 C181.566,95.301 184.931,93.13 188.55,93.13 C189.906,93.13 191.279,93.375 192.51,93.99 L192.51,97.176" id="Fill-5" fill="#1A1919"></path>
        <path d="M207.48,98.797 C207.48,101.135 208.579,104.202 211.372,104.202 C213.998,104.202 214.908,101.535 214.908,99.361 C214.908,97.009 213.78,93.895 210.943,93.895 C208.395,93.895 207.48,96.73 207.48,98.797 Z M217.598,98.962 C217.598,102.659 214.81,104.967 211.16,104.967 C207.561,104.967 204.793,102.745 204.793,99.085 C204.793,95.485 207.583,93.13 211.146,93.13 C214.623,93.13 217.598,95.15 217.598,98.962 L217.598,98.962 Z" id="Fill-6" fill="#1A1919"></path>
        <path d="M235.93,99.246 L234.423,95.398 L232.995,99.246 L235.93,99.246 Z M232.682,100.237 L232.384,101.088 C231.387,103.954 232.068,104.007 233.882,104.219 L233.882,104.682 L228.717,104.682 L228.717,104.219 C229.618,103.937 229.998,103.906 230.38,103.03 L234.038,94.469 L233.882,93.975 C234.527,93.75 235.054,93.258 235.45,92.698 L235.766,92.698 L238.868,100.77 C239.946,103.488 239.826,103.692 241.536,104.219 L241.536,104.682 L235.902,104.682 L235.902,104.219 C237.504,103.937 237.607,103.622 236.692,101.289 L236.296,100.237 L232.682,100.237 L232.682,100.237 Z" id="Fill-7" fill="#1A1919"></path>
        <path d="M262.101,104.682 L252.161,104.682 L252.161,104.219 C254.134,103.89 254.355,104.007 254.355,101.002 L254.355,97.092 C254.355,94.093 254.134,94.207 252.161,93.872 L252.161,93.412 L258.733,93.412 L258.733,93.872 C256.445,94.079 256.542,94.838 256.542,97.092 L256.542,103.192 C256.542,103.736 256.294,103.937 258.046,103.937 C260.887,103.937 261.529,102.88 262.857,100.591 L263.32,100.77 L262.101,104.682" id="Fill-8" fill="#1A1919"></path>
        <path d="M59.339,51.05 C60.109,51.421 60.868,51.778 61.606,52.11 L61.606,53.518 C60.868,53.788 59.565,54.448 58.878,54.914 C55.581,57.148 53.209,61.646 52.741,62.38 L51.533,62.38 C50.793,60.438 49.634,58.644 48.055,56.994 C46.482,55.351 44.683,54.191 42.673,53.518 L42.673,52.11 C44.683,51.439 46.482,50.283 48.055,48.634 C49.634,46.988 50.793,45.23 51.533,43.347 L52.741,43.347 C53.28,45.028 54.078,46.406 55.157,47.476 C55.157,47.476 55.812,48.235 56.111,48.535 C56.417,48.838 56.734,49.158 57.073,49.493 C57.073,49.493 58.563,50.687 59.339,51.05" id="Fill-9" fill="#1A1919"></path>
        <path d="M66.681,26.694 L66.681,25.692 C67.556,25.42 68.395,25.071 69.2,24.636 C70.002,24.196 70.777,23.712 71.517,23.174 C72.658,22.365 73.749,21.411 74.741,20.246 C80.503,13.476 83.805,2.656 84.005,2.122 L85.517,2.122 L85.517,20.355 L94.68,20.355 L94.68,26.694 L85.517,26.694 C85.517,26.694 85.517,28.477 85.517,28.812 L85.517,43.722 C85.517,44.861 85.589,46 85.717,47.146 C85.911,48.893 86.732,50.545 87.028,50.872 C87.323,51.199 87.605,51.567 88.84,51.675 C89.596,51.74 90.754,51.275 90.754,51.275 C91.557,50.937 92.282,50.57 92.92,50.158 C93.555,49.759 94.112,49.396 94.579,49.053 L95.289,50.066 L82.093,61.745 L80.579,63.056 C80.18,62.515 79.776,62.001 79.371,61.495 C78.97,60.993 78.528,60.507 78.06,60.035 C78.06,60.035 75.982,57.811 72.775,55.655 C72.038,55.16 70.437,54.383 69.097,53.941 C68.68,53.804 68.226,53.653 67.69,53.586 L67.69,52.414 C67.69,52.414 69.097,52.481 69.704,52.481 C70.847,52.481 71.551,52.197 71.815,51.622 C72.085,51.054 72.221,50.102 72.221,48.757 L72.221,26.694 L67.085,26.694" id="Fill-10" fill="#1A1919"></path>
        <path d="M112.425,39.209 C112.425,39.209 112.659,37.67 112.927,37.199 C113.133,36.793 113.445,36.305 113.889,35.74 C114.324,35.168 114.98,34.547 115.853,33.873 C115.853,33.873 117.032,32.969 117.516,32.663 C117.992,32.363 119.149,31.718 119.149,31.718 L117.561,28.735 L112.824,20.078 L112.524,20.078 C112.524,21.619 112.425,38.874 112.425,39.209 Z M133.578,49.586 C130.761,51.735 127.867,53.847 124.917,55.929 C121.961,58.011 119.144,60.33 116.456,62.88 C113.697,61.872 111.265,60.767 109.152,59.557 C107.041,58.349 105.272,56.922 103.863,55.28 C102.453,53.635 101.378,51.687 100.64,49.436 C99.9,47.184 99.537,44.518 99.537,41.427 C99.537,37.801 99.636,34.813 99.836,32.466 C100.035,30.115 100.459,28.166 101.096,26.622 C101.735,25.081 102.657,23.839 103.863,22.896 C105.073,21.956 106.72,21.016 108.797,20.078 L122.701,14.134 L130.956,27.431 L119.98,32.768 C118.837,33.302 117.831,33.942 116.96,34.682 C116.214,35.283 115.548,35.986 114.945,36.793 C114.34,37.6 114.04,38.475 114.04,39.414 C114.04,39.814 114.16,40.507 114.261,40.842 C114.356,41.175 114.909,42.167 115.246,42.435 C115.447,41.899 115.732,41.463 116.101,41.127 C116.47,40.792 116.926,40.588 117.46,40.52 L117.764,40.52 C118.505,40.52 119.144,40.774 119.676,41.278 C120.214,41.782 120.481,42.399 120.481,43.141 C120.481,43.879 120.214,44.518 119.676,45.053 C119.144,45.589 118.505,45.855 117.764,45.855 C117.43,45.855 116.843,45.791 116.004,45.657 C115.161,45.52 114.375,45.053 113.637,44.25 L113.532,44.25 C114.471,46.464 115.948,48.344 117.964,49.888 C119.98,51.433 122.328,52.205 125.014,52.205 C126.49,52.205 127.905,51.786 129.244,50.949 C130.591,50.104 131.833,49.317 132.969,48.581 L133.578,49.586 L133.578,49.586 Z" id="Fill-11" fill="#1A1919"></path>
        <g id="Group-15" fill="#1A1919">
            <path d="M275.172,50.9 C275.976,50.56 276.692,50.19 277.336,49.783 C277.975,49.384 278.527,49.017 278.997,48.678 L279.705,49.687 L266.509,61.37 L264.999,62.681 C264.595,62.14 264.192,61.618 263.787,61.116 C263.384,60.616 261.859,58.936 261.623,58.7 C261.389,58.464 259.355,56.736 259.355,56.736 C258.683,56.196 257.965,55.716 257.193,55.28 C256.419,54.836 253.441,53.226 252.107,53.211 L252.107,51.76 C252.107,51.76 253.517,52.104 254.122,52.104 C255.259,52.104 255.967,51.816 256.231,51.2469973 C256.505,50.679 256.638,49.723 256.638,48.376 L256.638,26.319 L251.5,26.319 L251.5,26.118 L251.5,26.319 L251.099,26.319 L251.099,25.315 C251.972,25.041 252.888,24.792 253.691,24.335 C260.034,20.726 263.575,13.419 264.801,11.01 C265.956,8.742 268.425,1.742 268.425,1.74699732 L269.933,1.74699732 L269.933,19.976 L279.096,19.976 L279.096,26.319 L269.933,26.319 L269.933,43.343 C269.933,44.484 270.003,45.623 270.137,46.767 C270.534,50.164 272,50.88 272.302,51.046 C272.601,51.215 272.92,51.283 273.256,51.296 C274.166,51.33 275.172,50.9 275.172,50.9" id="Fill-12"></path>
            <path d="M24.385,54.582 C23.282,53.344 22.113,52.223 20.873,51.215 C19.641,50.209 18.398,49.249 17.168,48.337 L17.168,26.584 C17.685,26.192 18.34,25.751 19.118,25.267 C19.899,24.779 20.744,24.537 21.653,24.537 C22.76,24.537 23.494,25.138 23.855,26.34 C24.208,27.544 24.385,29.183 24.385,31.268 L24.385,54.582 Z M37.26,29.122 C37.26,27.626 37.067,26.287 36.678,25.122 C36.287,23.952 35.764,22.875 35.119,21.899 C34.468,20.927 33.718,19.966 32.875,19.024 C32.028,18.082 31.149,17.09 30.239,16.048 L17.168,24.833 L17.168,12.93 C17.168,11.369 17.265,9.921 17.459,8.584 C17.654,7.256 18.027,6.1 18.584,5.124 C19.132,4.146 19.911,3.384 20.923,2.832 C21.933,2.279 23.282,2.001 24.97,2.001 L26.819,2.001 L26.819,0.442 C26.819,0.442 25.749,0.442 25.751,0.442 L23.992,0.442 C20.615,0.573 17.523,1.013 14.728,1.761 C11.932,2.505 9.623,3.695 7.8,5.316 C7.578,5.536 5.972,7.054 5.323,8.631 C4.065,11.906 4.194,18.086 4.194,19.365 L4.194,40.435 C4.194,40.503 4.202,40.624 4.194,40.729 L4.194,47.071 C4.166,48.042 3.9,48.922 3.9,48.922 C3.771,49.38 3.608,49.771 3.414,50.09 C3.22,50.416 2.924,50.713 2.537,50.969 L2.343,51.07 C1.69,51.392 0.91,51.554 0,51.554 L0,52.534 C1.831,53.101 4.612,54.398 4.973,54.582 C7.058,55.688 9.054,56.97 10.974,58.434 C12.891,59.898 14.698,61.475 16.388,63.165 C16.973,62.124 17.834,61.213 18.971,60.432 C20.111,59.652 21.351,58.956 22.681,58.335 C24.008,57.72 25.329,57.18 26.63,56.73 C27.93,56.272 29.033,55.883 29.947,55.556 C31.379,55.038 32.643,54.401 33.748,53.653 C34.855,52.909 35.704,51.848 36.287,50.485 C36.382,50.305 36.707,49.36 36.777,49.021 C37.099,47.718 37.26,46.291 37.26,44.73 L37.26,29.122 L37.26,29.122 Z" id="Fill-14"></path>
        </g>
        <path d="M312.405,31.268 C312.405,29.183 312.583,27.544 312.936,26.34 C313.297,25.138 314.027,24.537 315.136,24.537 C316.047,24.537 316.892,24.779 317.672,25.267 C318.451,25.751 319.104,26.192 319.62,26.584 L319.62,48.337 C318.392,49.249 317.152,50.209 315.914,51.215 C314.68,52.223 313.508,53.344 312.405,54.582 L312.405,31.268 Z M299.528,44.73 C299.878,50.82 301.936,52.909 303.039,53.653 C304.148,54.401 305.412,55.038 306.844,55.556 C307.753,55.883 308.856,56.272 310.161,56.73 C311.462,57.18 312.78,57.72 314.111,58.335 C315.442,58.956 316.676,59.652 317.82,60.432 C318.957,61.213 319.818,62.124 320.403,63.165 C322.093,61.475 323.897,59.898 325.817,58.434 C327.735,56.97 333.534,53.289 336.791,52.534 L336.791,51.554 C335.881,51.554 333.878,51.054 333.377,50.09 C333.205,49.759 333.02,49.38 332.893,48.922 C332.893,48.922 332.594,47.331 332.594,47.071 L332.594,19.365 C332.594,18.086 332.728,11.906 331.467,8.631 C331.326,8.341 330.872,7.277 328.987,5.316 C327.166,3.695 324.859,2.505 322.062,1.761 C319.265,1.013 316.172,0.573 312.797,0.442 L309.967,0.442 L309.967,2.001 L311.821,2.001 C313.508,2.001 314.858,2.279 315.866,2.832 C316.88,3.384 317.654,4.146 318.207,5.124 C318.763,6.1 319.136,7.256 319.33,8.584 C319.524,9.921 319.62,11.369 319.62,12.93 L319.62,24.833 L306.552,16.048 C305.642,17.09 304.763,18.082 303.916,19.024 C303.073,19.966 302.323,20.927 301.672,21.899 C301.022,22.875 300.504,23.952 300.113,25.122 C299.722,26.287 299.528,27.626 299.528,29.122 L299.528,44.73 L299.528,44.73 Z" id="Fill-16" fill="#1A1919"></path>
        <path d="M232.557,51.701 C231.35,50.493 230.089,49.368 228.781,48.327 C227.476,47.289 226.05,46.432 224.502,45.762 L224.502,25.715 C224.973,25.38 225.679,24.892 226.615,24.255 C227.557,23.617 228.293,23.317 228.831,23.299 C230.172,23.254 231.26,24.454 231.26,24.454 C232.063,25.597 232.557,27.431 232.557,30.046 L232.557,51.701 Z M245.854,29.643 C245.854,26.824 245.352,23.952 244.344,21.028 C243.336,18.112 241.831,15.781 239.807,14.029 L224.397,23.902 C224.397,22.158 224.167,20.581 223.695,19.167 C223.223,17.762 222.521,16.62 221.578,15.745 C220.705,14.938 219.735,14.315 218.658,13.882 C217.585,13.442 216.559,13.059 215.587,12.722 C214.613,12.386 213.808,12.039 213.171,11.666 C212.532,11.301 212.261,10.809 212.215,10.206 C212.127,9.042 213.822,7.838 214.829,7.538 C215.839,7.232 216.742,7.086 217.551,7.086 L218.559,7.086 L218.559,5.469 L217.051,5.469 C215.504,5.469 214.026,5.76 212.618,6.326 C211.211,6.899 209.981,7.689 208.943,8.695 C207.9,9.7 207.061,10.893 206.422,12.269 C205.783,13.648 205.466,15.142 205.466,16.749 C205.466,18.903 205.954,20.615 206.93,21.887 C207.9,23.164 209.36,24.275 211.31,25.21 L211.31,42.536 C210.767,42.601 210.309,42.742 209.902,42.887 C208.972,43.218 207.916,43.879 207.577,44.147 C207.245,44.413 206.478,45.258 206.478,45.258 C205.466,46.4 204.724,47.791 204.254,49.436 C203.788,51.082 203.55,52.705 203.55,54.32 C203.55,54.857 203.585,55.413 203.651,55.98 C203.716,56.553 203.821,57.107 203.954,57.643 L204.861,57.643 C204.861,57.309 204.829,57.022 204.762,56.787 C204.694,56.553 204.659,56.27 204.659,55.929 C204.659,54.857 204.966,53.967 205.567,53.264 C206.17,52.558 207.045,52.205 208.186,52.205 C208.854,52.205 209.507,52.34 210.15,52.61 C210.572,52.786 210.935,53 211.31,53.203 C211.31,53.203 212.003,73.648 210.044,77.792 L210.017,77.849 C209.804,78.333 209.557,78.81 209.281,79.276 C210.673,79.063 212.064,78.798 213.447,78.421 C215.391,77.885 217.203,77.269 218.784,76.398 C223.8,73.914 224.399,68.549 224.399,68.549 L224.502,58.43 C225.51,58.994 226.409,59.616 227.171,60.313 C228.008,61.088 228.831,61.84 229.638,62.576 C230.039,61.636 230.438,60.799 230.848,60.061 C231.251,59.319 231.701,58.636 232.205,57.994 C232.711,57.359 233.326,56.768 234.066,56.236 C234.806,55.696 235.744,55.157 236.887,54.619 C238.633,53.881 240.077,53.248 241.222,52.705 C242.364,52.171 243.283,51.616 243.989,51.046 C244.695,50.479 245.181,49.807 245.451,49.031 C245.721,48.263 245.854,47.202 245.854,45.855 C245.816,45.179 245.854,29.643 245.854,29.643 L245.854,29.643 Z" id="Fill-17" fill="#1A1919"></path>
        <path d="M195.144,28.235 C195.144,26.489 195.496,25.297 196.206,24.656 C196.908,24.021 198.134,23.7 199.876,23.7 L199.876,22.593 C198.872,22.194 197.928,21.724 197.059,21.182 C196.182,20.643 195.339,20.054 194.534,19.382 L194.541,19.373 C193.732,18.766 193.006,18.129 192.377,17.455 C191.738,16.786 189.54,14.067 189.401,13.93 L174.801,24.706 C174.801,21.823 173.993,19.604 172.386,18.06 C170.768,16.519 168.855,15.176 166.639,14.029 L156.772,22.692 L154.657,24.507 C154.59,21.619 153.753,19.419 152.14,17.907 C150.529,16.4 148.645,15.074 146.5,13.93 L134.716,24.507 L135.415,25.715 C135.754,25.315 136.19,24.944 136.728,24.612 C137.262,24.275 137.734,24.104 138.142,24.104 C139.009,24.104 139.751,24.406 140.356,25.011 C140.957,25.618 141.263,26.686 141.263,28.235 L141.263,48.075 C141.263,49.755 141.06,50.981 140.66,51.751 C140.255,52.522 139.416,52.909 138.142,52.909 L136.831,52.909 L136.831,54.018 C139.045,54.488 141.09,55.53 142.973,57.137 C143.78,57.744 144.55,58.43 145.288,59.202 C146.03,59.977 146.7,60.767 147.305,61.572 C147.438,61.773 147.569,61.939 147.704,62.076 C147.841,62.207 147.974,62.378 148.111,62.576 C148.849,60.696 149.954,58.97 151.432,57.389 C152.721,56.01 154.344,54.998 156.256,54.312 C156.258,54.316 156.258,54.32 156.268,54.32 C156.268,54.316 156.262,54.312 156.266,54.308 C156.536,54.211 156.79,54.103 157.072,54.018 L157.072,52.909 C155.463,52.909 154.657,51.969 154.657,50.09 L154.657,26.021 L157.274,24.202 C158.014,23.666 158.819,23.402 159.692,23.402 C160.027,23.402 160.43,23.549 160.9,23.851 C161.374,24.154 161.603,24.845 161.603,25.92 L161.603,48.075 C161.628,52.101 160.237,52.898 159.089,52.909 L158.081,52.909 L158.081,54.018 C159.823,54.552 161.555,55.544 163.269,56.99 C164.981,58.43 166.576,60.128 168.052,62.076 C168.131,62.203 168.276,62.507 168.276,62.571 C168.413,62.237 168.52,61.953 168.655,61.721 C168.79,61.485 169.241,60.748 169.241,60.748 C170.155,59.207 171.137,57.841 172.482,56.635 C173.825,55.428 175.435,54.552 177.318,54.018 L177.318,52.909 C176.911,52.909 176.578,52.881 176.308,52.808 C176.308,52.808 174.831,52.445 174.801,50.09 L174.801,26.118 L177.516,24.307 C177.721,24.174 177.941,24.061 178.171,23.952 C180.115,23.034 181.165,24.087 181.395,24.86 C181.631,25.634 181.748,26.384 181.748,27.126 L181.748,49.565 C181.8,51.945 180.187,52.909 179.308,52.909 L178.294,52.909 L178.294,54.018 C180.052,54.552 181.79,55.544 183.519,56.99 C185.243,58.43 186.848,60.128 188.336,62.076 C188.413,62.171 188.546,62.513 188.546,62.577 C188.685,62.243 188.806,61.953 188.943,61.721 C189.078,61.485 189.525,60.751 189.525,60.751 C190.393,59.224 191.441,57.841 192.794,56.635 C194.148,55.428 195.767,54.552 197.666,54.018 L197.666,52.909 C196.76,52.93 196.496,52.736 196.496,52.736 C195.619,52.277 195.18,51.485 195.144,50.231 L195.144,28.235" id="Fill-18" fill="#1A1919"></path>
        <path d="M298.381,9.133 C299.151,9.504 299.909,9.861 300.647,10.194 L300.647,11.601 C299.909,11.871 298.607,12.531 297.92,12.997 C294.623,15.231 292.251,19.73 291.783,20.464 L290.575,20.464 C289.835,18.522 288.676,16.727 287.096,15.078 C285.524,13.434 283.725,12.274 281.715,11.601 L281.715,10.194 C283.725,9.522 285.524,8.367 287.096,6.717 C288.676,5.072 289.835,3.313 290.575,1.43 L291.783,1.43 C292.321,3.112 293.12,4.489 294.199,5.56 C294.199,5.56 294.854,6.318 295.152,6.618 C295.459,6.921 295.776,7.241 296.114,7.576 C296.114,7.576 297.604,8.77 298.381,9.133" id="Fill-19" fill="#1A1919"></path>
    </g>
</svg>