<svg id="pinterest-social-logo" xmlns="http://www.w3.org/2000/svg" width="31.87" height="31.87" viewBox="0 0 31.87 31.87">
  <path id="Path_223" data-name="Path 223" d="M15.935,0A15.935,15.935,0,1,0,31.87,15.935,15.935,15.935,0,0,0,15.935,0Zm1.834,21.228a3.914,3.914,0,0,1-3.335-1.7s-.793,3.145-.96,3.751a14.542,14.542,0,0,1-2.465,4.467.181.181,0,0,1-.324-.078,15.319,15.319,0,0,1,.041-5.187c.261-1.109,1.755-7.438,1.755-7.438a5.255,5.255,0,0,1-.435-2.16c0-2.023,1.172-3.533,2.632-3.533a1.828,1.828,0,0,1,1.84,2.049c0,1.248-.794,3.114-1.2,4.844a2.112,2.112,0,0,0,2.153,2.629c2.586,0,4.327-3.322,4.327-7.258,0-2.991-2.014-5.231-5.679-5.231A6.465,6.465,0,0,0,9.4,12.919a3.936,3.936,0,0,0,.9,2.677.662.662,0,0,1,.2.761c-.066.251-.215.856-.278,1.095a.471.471,0,0,1-.684.342c-1.906-.778-2.795-2.867-2.795-5.215,0-3.878,3.27-8.527,9.756-8.527,5.212,0,8.642,3.771,8.642,7.82C25.134,17.227,22.156,21.228,17.769,21.228Z"/>
</svg>
