<?xml version="1.0" encoding="UTF-8"?>
<svg width="30px" height="30px" viewBox="0 0 30 30" version="1.1" xmlns="http://www.w3.org/2000/svg" xmlns:xlink="http://www.w3.org/1999/xlink">
    <title>noun_Star_3592001</title>
    <g id="Page-1" stroke="none" stroke-width="1" fill="none" fill-rule="evenodd">
        <g id="noun_Star_3592001" fill="#F7A399" fill-rule="nonzero">
            <path d="M28,9.87 L20.74,8.81 C20.5588573,8.78597793 20.4014726,8.67356026 20.32,8.51 L17.07,1.92 C16.6802621,1.13313478 15.878096,0.635280449 15,0.635280449 C14.121904,0.635280449 13.3197379,1.13313478 12.93,1.92 L9.68,8.51 C9.59852744,8.67356026 9.4411427,8.78597793 9.26,8.81 L2,9.87 C1.1325408,9.99624586 0.41128236,10.602616 0.137895455,11.4354924 C-0.135491451,12.2683688 0.0861047176,13.1842256 0.71,13.8 L6,18.93 C6.13002546,19.0616096 6.18946362,19.2473539 6.16,19.43 L4.89,26.67 C4.78238453,27.3387197 4.97108706,28.0211696 5.40696128,28.5396103 C5.8428355,29.058051 6.48273419,29.361162 7.16,29.37 C7.53667799,29.37 7.90754074,29.2770796 8.24,29.1 L14.74,25.68 C14.903986,25.5994967 15.096014,25.5994967 15.26,25.68 L21.76,29.1 C22.5372634,29.5072647 23.4781647,29.4389714 24.1884703,28.9237348 C24.898776,28.4084982 25.255819,27.5352974 25.11,26.67 L23.87,19.42 C23.8422162,19.2405033 23.9016421,19.0585116 24.03,18.93 L29.29,13.8 C29.923609,13.1917801 30.1495022,12.2726285 29.87,11.44 C29.5988354,10.6016888 28.8725952,9.99195765 28,9.87 Z" id="Path"></path>
        </g>
    </g>
</svg>