<?xml version="1.0" encoding="UTF-8"?>
<svg width="36px" height="30px" viewBox="0 0 36 30" version="1.1" xmlns="http://www.w3.org/2000/svg" xmlns:xlink="http://www.w3.org/1999/xlink">
    <title>twitter</title>
    <g id="Page-1" stroke="none" stroke-width="1" fill="none" fill-rule="evenodd">
        <g id="Group" transform="translate(-36.000000, -57.000000)" fill="#000000" fill-rule="nonzero">
            <g id="twitter" transform="translate(36.000000, 57.000000)">
                <path d="M36,3.46275 C34.66125,4.05 33.23475,4.43925 31.7475,4.62825 C33.2775,3.71475 34.44525,2.27925 34.99425,0.549 C33.56775,1.3995 31.99275,2.00025 30.31425,2.3355 C28.95975,0.89325 27.02925,0 24.92325,0 C20.83725,0 17.54775,3.3165 17.54775,7.38225 C17.54775,7.96725 17.59725,8.52975 17.71875,9.06525 C11.583,8.766 6.15375,5.82525 2.5065,1.3455 C1.86975,2.45025 1.49625,3.71475 1.49625,5.076 C1.49625,7.632 2.8125,9.89775 4.7745,11.2095 C3.58875,11.187 2.4255,10.84275 1.44,10.3005 C1.44,10.323 1.44,10.35225 1.44,10.3815 C1.44,13.968 3.99825,16.947 7.353,17.63325 C6.75225,17.7975 6.0975,17.87625 5.418,17.87625 C4.9455,17.87625 4.4685,17.84925 4.02075,17.75025 C4.977,20.673 7.6905,22.82175 10.917,22.8915 C8.406,24.85575 5.21775,26.03925 1.76625,26.03925 C1.161,26.03925 0.5805,26.01225 -3.99680289e-15,25.938 C3.26925,28.04625 7.14375,29.25 11.322,29.25 C24.903,29.25 32.328,18 32.328,8.2485 C32.328,7.92225 32.31675,7.60725 32.301,7.2945 C33.76575,6.255 34.9965,4.95675 36,3.46275 Z" id="Path"></path>
            </g>
        </g>
    </g>
</svg>