<svg id="youtube" xmlns="http://www.w3.org/2000/svg" width="36.244" height="24.918" viewBox="0 0 36.244 24.918">
  <g id="Group_392" data-name="Group 392" transform="translate(0 0)">
    <path id="Path_226" data-name="Path 226" d="M34.7,82.4c-.983-1.749-2.05-2.07-4.222-2.193C28.311,80.061,22.854,80,18.127,80s-10.2.061-12.364.206c-2.168.125-3.237.444-4.229,2.2C.521,84.148,0,87.156,0,92.452v.018c0,5.274.521,8.3,1.534,10.033.992,1.749,2.059,2.066,4.227,2.213,2.17.127,7.629.2,12.366.2s10.185-.075,12.357-.2c2.172-.147,3.239-.464,4.222-2.213,1.022-1.728,1.538-4.759,1.538-10.033v-.018C36.244,87.156,35.728,84.148,34.7,82.4ZM13.592,99.255V85.663l11.326,6.8Z" transform="translate(0 -80)"/>
  </g>
</svg>
