<?xml version="1.0" encoding="UTF-8"?>
<svg width="33px" height="38px" viewBox="0 0 33 38" version="1.1" xmlns="http://www.w3.org/2000/svg" xmlns:xlink="http://www.w3.org/1999/xlink">
    <title>✓</title>
    <g id="Page-1" stroke="none" stroke-width="1" fill="none" fill-rule="evenodd">
        <path d="M12.4296875,37.9033203 C16.4010417,26.1845703 19.639974,18.0058594 22.1464844,13.3671875 C24.6529948,8.72851562 27.9977214,4.72460938 32.1806641,1.35546875 C30.5530599,1.01367188 29.1858724,0.842773438 28.0791016,0.842773438 C25.9957682,0.842773438 24.3234049,1.35953776 23.0620117,2.39306641 C21.8006185,3.42659505 20.3642578,5.44075521 18.7529297,8.43554688 C15.8395182,13.936849 13.4388021,19.7555339 11.5507812,25.8916016 C9.890625,23.0107422 8.51529948,21.0576172 7.42480469,20.0322266 C6.3343099,19.0068359 5.08919271,18.4941406 3.68945312,18.4941406 C2.55013021,18.4941406 1.32128906,19.039388 0.0029296875,20.1298828 C2.3141276,22.2945964 4.53580729,25.0371094 6.66796875,28.3574219 L6.66796875,28.3574219 L7.64453125,29.8466797 L8.93847656,31.8730469 C9.75227865,33.1588542 10.9160156,35.1689453 12.4296875,37.9033203 Z" id="✓" fill="#000000" fill-rule="nonzero"></path>
    </g>
</svg>