<?xml version="1.0" encoding="UTF-8"?>
<svg width="36px" height="36px" viewBox="0 0 36 36" version="1.1" xmlns="http://www.w3.org/2000/svg" xmlns:xlink="http://www.w3.org/1999/xlink">
    <title>facebook</title>
    <g id="Page-1" stroke="none" stroke-width="1" fill="none" fill-rule="evenodd">
        <g id="Group" transform="translate(-15.000000, 0.000000)" fill="#FFFFFF" fill-rule="nonzero">
            <g id="facebook" transform="translate(15.000000, 0.000000)">
                <path d="M34.0127919,-1.08590809e-06 L1.98544817,-1.08590809e-06 C0.888792885,0.000658137313 -1.08590809e-06,0.890111273 -1.08590809e-06,1.98720598 L-1.08590809e-06,34.0145497 C0.000658137313,35.111205 0.890111273,35.9999989 1.98720598,35.9999989 L19.2304677,35.9999989 L19.2304677,22.0781239 L14.5546864,22.0781239 L14.5546864,16.6289052 L19.2304677,16.6289052 L19.2304677,12.6186757 C19.2304677,7.96816301 22.0695546,5.43691301 26.2179921,5.43691301 C28.2049794,5.43691301 29.9124745,5.58500869 30.4101552,5.65114642 L30.4101552,10.5117177 L27.549535,10.5117177 C25.2925038,10.5117177 24.8554677,11.584203 24.8554677,13.1583241 L24.8554677,16.6289052 L30.251952,16.6289052 L29.548827,22.0781239 L24.8554677,22.0781239 L24.8554677,35.9999989 L34.0127919,35.9999989 C35.1101064,35.9999989 35.9999989,35.1109852 35.9999989,34.0136708 C35.9999989,34.0134511 35.9999989,34.0132314 35.9999989,34.0127919 L35.9999989,1.98544817 C35.9995595,0.888792885 35.1098866,-1.08590809e-06 34.0127919,-1.08590809e-06 Z" id="Path"></path>
            </g>
        </g>
    </g>
</svg>