<svg xmlns="http://www.w3.org/2000/svg" width="86.806" height="85.377" viewBox="0 0 86.806 85.377">
  <path id="Path_151" data-name="Path 151" d="M195.619,267.5q-7.733,0-13.611-6.34t-5.878-20.264q0-14.231,7.827-28.769t26.1-30l3.1,3.405A106.325,106.325,0,0,0,198.6,199.775a97.869,97.869,0,0,0-9.447,13.318,55.392,55.392,0,0,0-5.11,11.305,30.057,30.057,0,0,0-1.547,8.208c0,2.27.308,3.668.932,4.183a3.075,3.075,0,0,0,2.795.308c1.244-.308,2.7-.724,4.35-1.239a17.7,17.7,0,0,1,5.287-.773q7.454,0,11.808,5.1a16.952,16.952,0,0,1,4.35,11.265,15.96,15.96,0,0,1-4.332,11.576Q203.352,267.5,195.619,267.5Zm49.78,0q-7.733,0-13.611-6.34t-5.878-20.264q0-14.231,7.827-28.769t26.1-30l3.1,3.405a106.323,106.323,0,0,0-14.557,14.249,97.869,97.869,0,0,0-9.447,13.318,55.392,55.392,0,0,0-5.11,11.305,30.057,30.057,0,0,0-1.547,8.208c0,2.27.308,3.668.932,4.183A3.075,3.075,0,0,0,236,237.1c1.244-.308,2.7-.724,4.35-1.239a17.7,17.7,0,0,1,5.286-.773q7.454,0,11.808,5.1a16.952,16.952,0,0,1,4.35,11.265,15.96,15.96,0,0,1-4.332,11.576Q253.131,267.5,245.4,267.5Z" transform="translate(-176.13 -182.12)" fill="#d0d0d0"/>
</svg>
