<svg xmlns="http://www.w3.org/2000/svg" width="86.806" height="85.377" viewBox="0 0 86.806 85.377">
  <g id="QUOTE-1" transform="translate(86.806 85.377) rotate(180)">
    <path id="Path_151" data-name="Path 151" d="M19.489,85.377q-7.733,0-13.611-6.34T0,58.773Q0,44.542,7.827,30t26.1-30l3.1,3.405A106.325,106.325,0,0,0,22.469,17.655a97.869,97.869,0,0,0-9.447,13.318,55.392,55.392,0,0,0-5.11,11.305,30.057,30.057,0,0,0-1.547,8.208c0,2.27.308,3.668.932,4.183a3.075,3.075,0,0,0,2.795.308c1.244-.308,2.7-.724,4.35-1.239a17.7,17.7,0,0,1,5.287-.773q7.454,0,11.808,5.1a16.952,16.952,0,0,1,4.35,11.265A15.96,15.96,0,0,1,31.553,80.9Q27.222,85.376,19.489,85.377Zm49.78,0q-7.733,0-13.611-6.34T49.78,58.773q0-14.231,7.827-28.769t26.1-30l3.1,3.405A106.323,106.323,0,0,0,72.249,17.655,97.869,97.869,0,0,0,62.8,30.973a55.392,55.392,0,0,0-5.11,11.305,30.057,30.057,0,0,0-1.547,8.208c0,2.27.308,3.668.932,4.183a3.075,3.075,0,0,0,2.795.308c1.244-.308,2.7-.724,4.35-1.239a17.7,17.7,0,0,1,5.286-.773q7.454,0,11.808,5.1a16.952,16.952,0,0,1,4.35,11.265A15.96,15.96,0,0,1,81.333,80.9Q77,85.376,69.269,85.377Z" transform="translate(0 0)" fill="#d0d0d0"/>
  </g>
</svg>
