<?xml version="1.0" encoding="UTF-8"?>
<svg width="87px" height="86px" viewBox="0 0 87 86" version="1.1" xmlns="http://www.w3.org/2000/svg" xmlns:xlink="http://www.w3.org/1999/xlink">
    <title>Path_151</title>
    <g id="Page-1" stroke="none" stroke-width="1" fill="none" fill-rule="evenodd">
        <g id="quote-left" fill="#E390B7" fill-rule="nonzero">
            <path d="M19.489,85.38 C14.3336667,85.38 9.79666667,83.2666667 5.878,79.04 C1.95933333,74.8133333 0,68.0586667 0,58.776 C0,49.2886667 2.609,39.699 7.827,30.007 C13.045,20.315 21.745,10.315 33.927,0.007 L37.027,3.412 C31.7301044,7.68294224 26.855415,12.4524827 22.47,17.655 C18.9555244,21.8234369 15.7955295,26.2782705 13.023,30.973 C10.9017089,34.5380929 9.18762739,38.3302046 7.913,42.278 C7.01784147,44.9286677 6.49714854,47.6913358 6.366,50.486 C6.366,52.756 6.674,54.154 7.298,54.669 C8.12541409,55.2165802 9.16620471,55.3312719 10.093,54.977 C11.337,54.669 12.793,54.253 14.443,53.738 C16.156064,53.214282 17.9387044,52.9536463 19.73,52.965 C24.6993333,52.965 28.6353333,54.665 31.538,58.065 C34.3216154,61.1587388 35.8699304,65.1683407 35.888,69.33 C36.0574045,73.6138851 34.4961828,77.7857925 31.556,80.906 C28.6666667,83.8886667 24.6443333,85.38 19.489,85.38 Z M69.269,85.38 C64.1136667,85.38 59.5766667,83.2666667 55.658,79.04 C51.7393333,74.8133333 49.78,68.0586667 49.78,58.776 C49.78,49.2886667 52.389,39.699 57.607,30.007 C62.825,20.315 71.525,10.315 83.707,0.007 L86.807,3.412 C81.5098144,7.68482746 76.635115,12.456387 72.25,17.661 C68.7355244,21.8294369 65.5755295,26.2842705 62.803,30.979 C60.6817089,34.5440929 58.9676274,38.3362046 57.693,42.284 C56.7978415,44.9346677 56.2771485,47.6973358 56.146,50.492 C56.146,52.762 56.454,54.16 57.078,54.675 C57.9051659,55.2205745 58.9445511,55.3341177 59.87,54.98 C61.114,54.672 62.57,54.256 64.22,53.741 C65.9327437,53.2173821 67.7150393,52.9567475 69.506,52.968 C74.4753333,52.968 78.4113333,54.668 81.314,58.068 C84.0976154,61.1617388 85.6459304,65.1713407 85.664,69.333 C85.8334045,73.6168851 84.2721828,77.7887925 81.332,80.909 C78.4446667,83.8896667 74.424,85.38 69.27,85.38 L69.269,85.38 Z" id="Path_151"></path>
        </g>
    </g>
</svg>