<?xml version="1.0" encoding="UTF-8"?>
<svg width="88px" height="87px" viewBox="0 0 88 87" version="1.1" xmlns="http://www.w3.org/2000/svg" xmlns:xlink="http://www.w3.org/1999/xlink">
    <title>quote-right</title>
    <g id="Page-1" stroke="none" stroke-width="1" fill="none" fill-rule="evenodd">
        <g id="quote-right" fill="#E390B7" fill-rule="nonzero">
            <g id="QUOTE-1" transform="translate(44.306000, 43.377000) rotate(180.000000) translate(-44.306000, -43.377000) translate(0.806000, 0.377000)">
                <path d="M19.489,85.377 C14.3336667,85.377 9.79666667,83.2636667 5.878,79.037 C1.95933333,74.8103333 0,68.0556667 0,58.773 C0,49.2856667 2.609,39.6946667 7.827,30 C13.045,20.3053333 21.745,10.3053333 33.927,0 L37.027,3.405 C31.7294278,7.67810321 26.8543912,12.4499999 22.469,17.655 C18.9545244,21.8234369 15.7945295,26.2782705 13.022,30.973 C10.9007089,34.5380929 9.18662739,38.3302046 7.912,42.278 C7.01684147,44.9286677 6.49614854,47.6913358 6.365,50.486 C6.365,52.756 6.673,54.154 7.297,54.669 C8.12441409,55.2165802 9.16520471,55.3312719 10.092,54.977 C11.336,54.669 12.792,54.253 14.442,53.738 C16.155064,53.214282 17.9377044,52.9536463 19.729,52.965 C24.6983333,52.965 28.6343333,54.665 31.537,58.065 C34.3206154,61.1587388 35.8689304,65.1683407 35.887,69.33 C36.0542378,73.6121188 34.4923965,77.7815937 31.553,80.9 C28.6656667,83.884 24.6443333,85.377 19.489,85.377 Z M69.269,85.377 C64.1136667,85.377 59.5766667,83.2636667 55.658,79.037 C51.7393333,74.8103333 49.78,68.0556667 49.78,58.773 C49.78,49.2856667 52.389,39.696 57.607,30.004 C62.825,20.312 71.525,10.312 83.707,0.004 L86.807,3.409 C81.5096075,7.68083105 76.6345762,12.451383 72.249,17.655 C68.7338333,21.8233614 65.5731678,26.2781971 62.8,30.973 C60.6787089,34.5380929 58.9646274,38.3302046 57.69,42.278 C56.7948415,44.9286677 56.2741485,47.6913358 56.143,50.486 C56.143,52.756 56.451,54.154 57.075,54.669 C57.9024141,55.2165802 58.9432047,55.3312719 59.87,54.977 C61.114,54.669 62.57,54.253 64.22,53.738 C65.9327437,53.2143821 67.7150393,52.9537475 69.506,52.965 C74.4753333,52.965 78.4113333,54.665 81.314,58.065 C84.0976154,61.1587388 85.6459304,65.1683407 85.664,69.33 C85.832043,73.6116912 84.2713044,77.7811083 81.333,80.9 C78.4443333,83.884 74.423,85.377 69.269,85.377 Z" id="Path_151"></path>
            </g>
        </g>
    </g>
</svg>