<?xml version="1.0" encoding="UTF-8"?>
<svg width="36px" height="27px" viewBox="0 0 36 27" version="1.1" xmlns="http://www.w3.org/2000/svg" xmlns:xlink="http://www.w3.org/1999/xlink">
    <title>youtube</title>
    <g id="Page-1" stroke="none" stroke-width="1" fill="none" fill-rule="evenodd">
        <g id="Group" transform="translate(-66.000000, -58.000000)" fill="#FFFFFF" fill-rule="nonzero">
            <g id="youtube" transform="translate(66.000000, 58.000000)">
                <path d="M32.0851486,2.1477494 C29.2680521,1.3769535 17.9994467,1.3769535 17.9994467,1.3769535 C17.9994467,1.3769535 6.73128067,1.3769535 3.91418425,2.11852591 C2.40181587,2.53336704 1.15619388,3.77898908 0.741352759,5.32102031 C0,8.13789702 0,13.9797302 0,13.9797302 C0,13.9797302 0,19.8510065 0.741352759,22.6384401 C1.15663331,24.1804713 2.37215296,25.3962107 3.91440396,25.8114913 C6.76094352,26.5825069 17.9998861,26.5825069 17.9998861,26.5825069 C17.9998861,26.5825069 29.2680521,26.5825069 32.0851486,25.8409345 C33.6273996,25.4258736 34.8431389,24.2101342 35.2584195,22.668103 C35.999853,19.8510065 35.999853,14.0093931 35.999853,14.0093931 C35.999853,14.0093931 36.0292154,8.13789702 35.25798,5.32102031 C34.8431389,3.77876937 33.6271798,2.56302995 32.0851486,2.1477494 Z M14.4117741,19.3766198 L14.4117741,8.58284054 L23.7821737,13.9797302 L14.4117741,19.3766198 Z" id="Shape"></path>
            </g>
        </g>
    </g>
</svg>