<?xml version="1.0" encoding="UTF-8"?>
<svg width="23px" height="22px" viewBox="0 0 23 22" version="1.1" xmlns="http://www.w3.org/2000/svg" xmlns:xlink="http://www.w3.org/1999/xlink">
    <title>Group</title>
    <g id="Page-1" stroke="none" stroke-width="1" fill="none" fill-rule="evenodd">
        <g id="noun_Star_2585102" transform="translate(0.117212, 0.635416)" fill="#5E455E" fill-rule="nonzero">
            <g id="Group">
                <path d="M11.0861167,0.000598433888 C10.8677869,0.0109528752 10.6782847,0.154465307 10.6091431,0.361816698 L8.19533696,7.64147566 L0.525521092,7.68850111 C0.297682218,7.69010837 0.0964464535,7.83736048 0.0259804626,8.05403462 C-0.0444855283,8.27070875 0.0316375551,8.50816252 0.214945745,8.64348157 L6.39234629,13.1899741 L4.06639027,20.4985718 C3.99768733,20.7157337 4.07563874,20.9524948 4.25991583,21.0863654 C4.44419292,21.2202359 4.69345455,21.2211831 4.87874364,21.0887168 L11.1114382,16.6181885 L17.3436157,21.0887168 C17.5289048,21.2211833 17.7781666,21.2202363 17.9624438,21.0863657 C18.146721,20.9524951 18.2246724,20.7157338 18.1559693,20.4985718 L15.8320802,13.1899741 L22.0099975,8.64348157 C22.1933057,8.50816253 22.2694288,8.27070876 22.1989628,8.05403463 C22.1284968,7.8373605 21.9272611,7.69010838 21.6994222,7.68850111 L14.0290896,7.64147566 L11.6132162,0.361816698 C11.5382357,0.136955817 11.3228836,-0.0106237688 11.0861167,0.000598433888 Z" id="Path"></path>
            </g>
        </g>
    </g>
</svg>