<svg xmlns="http://www.w3.org/2000/svg" width="54.491" height="53.594" viewBox="0 0 54.491 53.594">
  <g id="QUOTE-1" transform="translate(0 0)" opacity="0.25">
    <path id="Path_202" data-name="Path 202" d="M188.364,235.714a11.331,11.331,0,0,1-8.544-3.98q-3.692-3.982-3.69-12.72a37.873,37.873,0,0,1,4.913-18.06q4.914-9.125,16.385-18.835l1.945,2.138a66.744,66.744,0,0,0-9.138,8.945,61.436,61.436,0,0,0-5.93,8.36,34.77,34.77,0,0,0-3.208,7.1,18.868,18.868,0,0,0-.971,5.152c0,1.425.193,2.3.585,2.626a1.93,1.93,0,0,0,1.754.193c.781-.193,1.692-.454,2.731-.778a11.109,11.109,0,0,1,3.319-.485,9.244,9.244,0,0,1,7.412,3.2,10.641,10.641,0,0,1,2.731,7.071,9.523,9.523,0,0,1-10.293,10.076Zm31.249,0a11.331,11.331,0,0,1-8.544-3.98q-3.692-3.982-3.69-12.72a37.873,37.873,0,0,1,4.913-18.06q4.914-9.125,16.385-18.835l1.945,2.138a66.743,66.743,0,0,0-9.138,8.945,61.431,61.431,0,0,0-5.93,8.36,34.77,34.77,0,0,0-3.208,7.1,18.868,18.868,0,0,0-.971,5.152c0,1.425.193,2.3.585,2.626a1.93,1.93,0,0,0,1.754.193c.781-.193,1.692-.454,2.731-.778a11.109,11.109,0,0,1,3.319-.485,9.244,9.244,0,0,1,7.412,3.2,10.641,10.641,0,0,1,2.731,7.071,9.523,9.523,0,0,1-10.293,10.076Z" transform="translate(-176.13 -182.12)" fill="#6d4f6d"/>
  </g>
</svg>
